<svg width="25" height="35" viewBox="0 0 25 35" fill="none" xmlns="http://www.w3.org/2000/svg">
<path d="M17.0077 22.0024C20.8933 18.118 20.8933 11.7977 17.0077 7.91331C13.1221 4.0289 6.79984 4.0289 2.91419 7.91331C-0.971397 11.7977 -0.971397 18.118 2.91419 22.0024C4.55892 23.6466 6.64023 24.5946 8.78846 24.8469V28.1822H6.44365C5.79613 28.1822 5.27125 28.707 5.27125 29.3543C5.27125 30.0015 5.79613 30.5263 6.44365 30.5263H8.78846V33.8279C8.78851 34.4752 9.3134 35 9.96098 35C10.6085 35 11.1334 34.4752 11.1334 33.8279V30.5263H13.4782C14.1258 30.5263 14.6506 30.0015 14.6506 29.3543C14.6506 28.707 14.1258 28.1822 13.4782 28.1822H11.1334V24.8469C13.2817 24.5946 15.363 23.6466 17.0077 22.0024ZM4.57228 20.3448C1.60093 17.3744 1.60093 12.5412 4.57228 9.57082C7.54357 6.60052 12.3782 6.60034 15.3497 9.57082C18.321 12.5412 18.321 17.3744 15.3497 20.3448C12.3783 23.3152 7.54363 23.3152 4.57228 20.3448Z" fill="black"/>
<path d="M23.7595 0H16.6456C15.9239 0 15.3568 0.567132 15.3568 1.28894C15.3568 2.01074 15.9239 2.57787 16.6456 2.57787H20.615L15.8723 7.32116C12.2122 4.58861 7.00563 4.8464 3.7064 8.14608C0.0978668 11.7551 0.0978668 17.6842 3.7064 21.2932C7.31493 24.9023 13.2432 24.9023 16.8518 21.2932C20.151 17.9936 20.4603 12.7347 17.6766 9.12567L22.4192 4.38238V8.40387C22.4192 9.12567 22.9863 9.6928 23.708 9.6928C24.4297 9.6928 24.9967 9.12567 24.9967 8.40387V1.28894C25.0483 0.567132 24.4812 0 23.7595 0ZM15.0991 19.4887C12.47 22.1182 8.19129 22.1182 5.56222 19.4887C2.93314 16.8593 2.93314 12.58 5.56222 9.95059C8.19129 7.32116 12.47 7.32116 15.0991 9.95059C17.7281 12.58 17.7281 16.8593 15.0991 19.4887Z" fill="black"/>
</svg>
