<svg width="14" height="20" viewBox="0 0 14 20" fill="none" xmlns="http://www.w3.org/2000/svg">
<path d="M12.7729 2.03163C12.2492 1.57 11.7976 1.17048 11.7976 0.566159C11.7963 0.502011 11.7702 0.440851 11.7249 0.395482C11.6795 0.350113 11.6183 0.324052 11.5542 0.322754C11.2 0.322754 9.12182 2.54865 9.12182 4.05777C9.12132 5.40485 10.2129 6.49727 11.56 6.49778C12.9071 6.49828 13.9995 5.40669 14 4.05961V4.05777C14 3.11772 13.3487 2.54026 12.7729 2.03163ZM9.56499 7.87167C8.07938 6.55896 6.66763 5.32012 6.66763 3.42827C6.66808 3.39464 6.66179 3.36125 6.64912 3.33009C6.63646 3.29893 6.61768 3.27062 6.5939 3.24684C6.57011 3.22306 6.54181 3.20428 6.51065 3.19162C6.47949 3.17895 6.4461 3.17266 6.41247 3.17311C5.82494 3.17311 1.0322e-07 9.14074 1.0322e-07 13.2451C-0.000629393 16.7968 2.8781 19.6765 6.4298 19.6771C9.9815 19.6778 12.8612 16.799 12.8619 13.2473V13.2451C12.8686 10.7875 11.1899 9.30525 9.56499 7.87167ZM6.43765 17.8261C6.37465 17.8261 6.31424 17.8011 6.26969 17.7565C6.22515 17.712 6.20012 17.6516 6.20012 17.5886C6.20012 17.5256 6.22515 17.4652 6.26969 17.4206C6.31424 17.3761 6.37465 17.351 6.43765 17.351C8.50273 17.3492 10.1766 15.6761 10.1794 13.611C10.1794 13.548 10.2044 13.4876 10.2489 13.443C10.2935 13.3985 10.3539 13.3735 10.4169 13.3735C10.4799 13.3735 10.5403 13.3985 10.5849 13.443C10.6294 13.4876 10.6544 13.548 10.6544 13.611C10.6517 15.9385 8.76511 17.8243 6.43765 17.8261Z" fill="#6E7984"/>
</svg>
