<svg width="20" height="30" viewBox="0 0 20 30" fill="none" xmlns="http://www.w3.org/2000/svg">
<path d="M17.0077 17.0024C20.8933 13.118 20.8933 6.79767 17.0077 2.91331C13.1221 -0.971105 6.79984 -0.971105 2.91419 2.91331C-0.971397 6.79767 -0.971397 13.118 2.91419 17.0024C4.55892 18.6466 6.64023 19.5946 8.78846 19.8469V23.1822H6.44365C5.79613 23.1822 5.27125 23.707 5.27125 24.3543C5.27125 25.0015 5.79613 25.5263 6.44365 25.5263H8.78846V28.8279C8.78851 29.4752 9.3134 30 9.96098 30C10.6085 30 11.1334 29.4752 11.1334 28.8279V25.5263H13.4782C14.1258 25.5263 14.6506 25.0015 14.6506 24.3543C14.6506 23.707 14.1258 23.1822 13.4782 23.1822H11.1334V19.8469C13.2817 19.5946 15.363 18.6466 17.0077 17.0024ZM4.57228 15.3448C1.60093 12.3744 1.60093 7.54123 4.57228 4.57082C7.54357 1.60052 12.3782 1.60034 15.3497 4.57082C18.321 7.54123 18.321 12.3744 15.3497 15.3448C12.3783 18.3152 7.54363 18.3152 4.57228 15.3448Z" fill="black"/>
</svg>
