<svg width="24" height="24" viewBox="0 0 24 24" fill="none" xmlns="http://www.w3.org/2000/svg">
<path d="M14.2969 12C14.2969 13.2686 13.2685 14.2969 12 14.2969C10.7315 14.2969 9.70312 13.2685 9.70312 12C9.70312 10.7315 10.7315 9.70312 12 9.70312C13.2685 9.70312 14.2969 10.7315 14.2969 12Z" fill="white"/>
<path d="M17.3716 7.93625C17.2612 7.63694 17.085 7.3662 16.8562 7.14392C16.6339 6.91502 16.3632 6.73889 16.0638 6.62848C15.821 6.53421 15.4563 6.42195 14.7845 6.39139C14.0577 6.35825 13.8399 6.35107 12 6.35107C10.16 6.35107 9.94211 6.35806 9.21555 6.3912C8.54374 6.42195 8.17877 6.53417 7.93619 6.62848C7.63684 6.73884 7.36608 6.91499 7.14386 7.14392C6.91497 7.36621 6.73878 7.63694 6.62824 7.93625C6.53397 8.17906 6.42171 8.54398 6.39114 9.21579C6.358 9.94236 6.35083 10.1602 6.35083 12.0003C6.35083 13.8401 6.358 14.058 6.39114 14.7847C6.42171 15.4565 6.53397 15.8213 6.62824 16.0641C6.73872 16.3634 6.91484 16.6341 7.14367 16.8564C7.36592 17.0853 7.63668 17.2614 7.936 17.3719C8.17881 17.4663 8.54374 17.5786 9.21555 17.6091C9.94211 17.6423 10.1598 17.6493 11.9998 17.6493C13.84 17.6493 14.0579 17.6423 14.7843 17.6091C15.4561 17.5786 15.8211 17.4663 16.0638 17.3719C16.361 17.2572 16.6309 17.0816 16.8562 16.8564C17.0814 16.6312 17.257 16.3613 17.3716 16.0641C17.4659 15.8213 17.5781 15.4566 17.6089 14.7847C17.642 14.058 17.649 13.8401 17.649 12.0003C17.649 10.1602 17.642 9.94236 17.6089 9.21579C17.5783 8.54398 17.4661 8.17901 17.3716 7.93625ZM12 15.5384C10.0458 15.5384 8.46152 13.9543 8.46152 12.0001C8.46152 10.0458 10.0458 8.46176 12 8.46176C13.9541 8.46176 15.5383 10.0458 15.5383 12.0001C15.5383 13.9543 13.9541 15.5384 12 15.5384ZM15.6783 9.14876C15.2216 9.14876 14.8514 8.7785 14.8514 8.32189C14.8514 7.86528 15.2216 7.49496 15.6783 7.49496C16.1349 7.49496 16.5051 7.86518 16.5051 8.32184C16.5049 8.7785 16.1349 9.14876 15.6783 9.14876Z" fill="white"/>
<path d="M12 0C5.37361 0 0 5.37361 0 12C0 18.6264 5.37361 24 12 24C18.6264 24 24 18.6264 24 12C24 5.37361 18.6264 0 12 0ZM18.849 14.8409C18.8158 15.5744 18.6991 16.0752 18.5288 16.5135C18.3518 16.9713 18.0811 17.387 17.734 17.734C17.387 18.0811 16.9713 18.3518 16.5135 18.5288C16.0754 18.6991 15.5744 18.8155 14.841 18.849C14.1063 18.8826 13.8715 18.8906 12.0002 18.8906C10.1287 18.8906 9.89409 18.8826 9.15909 18.849C8.42578 18.8155 7.92483 18.6991 7.48659 18.5288C7.02676 18.3558 6.61022 18.0845 6.26606 17.7339C5.91557 17.3898 5.64437 16.9733 5.47139 16.5135C5.30109 16.0754 5.18447 15.5744 5.15114 14.841C5.11725 14.106 5.10938 13.8713 5.10938 12C5.10938 10.1287 5.11725 9.89391 5.15095 9.15914C5.18423 8.42559 5.30072 7.92483 5.47102 7.48645C5.64405 7.02665 5.91537 6.61016 6.26602 6.26606C6.61013 5.91545 7.02664 5.64418 7.48645 5.4712C7.92483 5.30091 8.42559 5.18447 9.15914 5.15095C9.89391 5.11744 10.1287 5.10938 12 5.10938C13.8713 5.10938 14.1061 5.11744 14.8409 5.15109C15.5744 5.18447 16.0752 5.30091 16.5135 5.47102C16.9734 5.64409 17.39 5.91539 17.7342 6.26602C18.0847 6.61018 18.3559 7.02668 18.5288 7.48645C18.6993 7.92483 18.8157 8.42559 18.8492 9.15914C18.8827 9.89391 18.8906 10.1287 18.8906 12C18.8906 13.8713 18.8827 14.1061 18.849 14.8409Z" fill="white"/>
</svg>
