<svg width="30" height="30" viewBox="0 0 30 30" fill="none" xmlns="http://www.w3.org/2000/svg">
<path d="M28.4494 0H19.557C18.6548 0 17.946 0.708819 17.946 1.61095C17.946 2.51309 18.6548 3.2219 19.557 3.2219H24.5187L18.5904 9.15021C14.0153 5.73499 7.50704 6.05718 3.383 10.1812C-1.12767 14.6919 -1.12767 22.1023 3.383 26.6129C7.89367 31.1236 15.304 31.1236 19.8147 26.6129C23.9388 22.4889 24.3254 15.9162 20.8457 11.4055L26.774 5.47724V10.5034C26.774 11.4055 27.4828 12.1144 28.385 12.1144C29.2871 12.1144 29.9959 11.4055 29.9959 10.5034V1.61095C30.0604 0.708819 29.3515 0 28.4494 0ZM17.6238 24.3576C14.3375 27.6439 8.98911 27.6439 5.70277 24.3576C2.41643 21.0713 2.41643 15.7229 5.70277 12.4366C8.98911 9.15021 14.3375 9.15021 17.6238 12.4366C20.9102 15.7229 20.9102 21.0713 17.6238 24.3576Z" fill="black"/>
</svg>
