<svg width="52" height="43" viewBox="0 0 52 43" fill="none" xmlns="http://www.w3.org/2000/svg">
<path d="M51.8378 27.5287C51.8378 26.8798 51.351 26.3119 50.702 26.1497L50.7831 21.2823L51.1888 1.00144C51.1888 0.0279651 49.8908 -0.377651 49.3229 0.433582C48.5928 1.73155 48.025 3.11065 47.8627 4.65199L45.6724 21.2823L45.5101 22.4991C45.429 23.067 45.9158 23.6348 46.4836 23.6348H47.7816C48.025 23.6348 48.2683 23.716 48.5117 23.8782C48.6739 24.0404 48.8362 24.2838 48.8362 24.6083V26.0685H48.3495C47.9438 26.0685 47.6193 26.2308 47.2948 26.4741C47.0515 26.7175 46.8892 27.1231 46.8892 27.5287L46.9704 40.1029C46.9704 40.9141 47.6193 41.5631 48.4306 41.5631H50.5398C51.351 41.5631 52 40.9141 52 40.1029L51.8378 27.5287ZM26.9329 9.19489C20.2808 9.19489 14.9267 14.6301 14.9267 21.2011C14.9267 27.8532 20.2808 33.2074 26.9329 33.2074C33.585 33.2074 38.9392 27.8532 38.9392 21.2011C38.9392 14.6301 33.585 9.19489 26.9329 9.19489ZM26.9329 13.2511C22.5523 13.2511 18.9828 16.8205 18.9828 21.2011C18.9828 21.6879 18.5772 22.1746 18.0094 22.1746C17.4415 22.1746 17.0359 21.769 17.0359 21.2011C17.0359 15.7659 21.4977 11.3041 26.9329 11.3041C27.5008 11.3041 27.9064 11.7097 27.9064 12.2776C27.9064 12.8454 27.5008 13.2511 26.9329 13.2511ZM26.9329 9.19489C20.2808 9.19489 14.9267 14.6301 14.9267 21.2011C14.9267 27.8532 20.2808 33.2074 26.9329 33.2074C33.585 33.2074 38.9392 27.8532 38.9392 21.2011C38.9392 14.6301 33.585 9.19489 26.9329 9.19489ZM26.9329 13.2511C22.5523 13.2511 18.9828 16.8205 18.9828 21.2011C18.9828 21.6879 18.5772 22.1746 18.0094 22.1746C17.4415 22.1746 17.0359 21.769 17.0359 21.2011C17.0359 15.7659 21.4977 11.3041 26.9329 11.3041C27.5008 11.3041 27.9064 11.7097 27.9064 12.2776C27.9064 12.8454 27.5008 13.2511 26.9329 13.2511ZM26.9329 4.48974C17.6849 4.48974 10.1404 12.0342 10.1404 21.2823C10.1404 30.5303 17.6849 38.0748 26.9329 38.0748C36.181 38.0748 43.7254 30.5303 43.7254 21.2823C43.7254 11.9531 36.181 4.48974 26.9329 4.48974ZM26.9329 35.1543C19.2262 35.1543 12.9797 28.9078 12.9797 21.2011C12.9797 13.4944 19.2262 7.24793 26.9329 7.24793C34.6396 7.24793 40.8861 13.4944 40.8861 21.2011C40.8861 28.9078 34.6396 35.1543 26.9329 35.1543ZM26.9329 9.19489C20.2808 9.19489 14.9267 14.6301 14.9267 21.2011C14.9267 27.8532 20.2808 33.2074 26.9329 33.2074C33.585 33.2074 38.9392 27.8532 38.9392 21.2011C38.9392 14.6301 33.585 9.19489 26.9329 9.19489ZM26.9329 13.2511C22.5523 13.2511 18.9828 16.8205 18.9828 21.2011C18.9828 21.6879 18.5772 22.1746 18.0094 22.1746C17.4415 22.1746 17.0359 21.769 17.0359 21.2011C17.0359 15.7659 21.4977 11.3041 26.9329 11.3041C27.5008 11.3041 27.9064 11.7097 27.9064 12.2776C27.9064 12.8454 27.5008 13.2511 26.9329 13.2511ZM10.1404 0.920321L10.0593 11.7908C10.0593 14.549 7.78783 16.7394 5.02964 16.7394C2.27145 16.7394 0 14.549 0 11.7908V0.920321C0 0.433581 0.405616 0.0279653 0.892356 0.0279653C1.3791 0.0279653 1.78471 0.433581 1.78471 0.920321V10.0872C1.78471 10.6551 2.27145 11.1419 2.83931 11.1419H3.08268C3.65055 11.1419 4.13729 10.6551 4.13729 10.0872V0.920321C4.13729 0.433581 4.5429 0.0279653 5.02964 0.0279653H5.19189C5.67863 0.0279653 6.08424 0.433581 6.08424 0.920321V10.0872C6.08424 10.6551 6.57098 11.1419 7.13885 11.1419H7.30109C7.86895 11.1419 8.35569 10.6551 8.35569 10.0872V0.920321C8.35569 0.433581 8.76131 0.0279653 9.24805 0.0279653C9.73479 0.0279653 10.1404 0.433581 10.1404 0.920321ZM6.00312 42.6177H4.13729C2.83931 42.6177 1.78471 41.5631 1.78471 40.2651V30.7737C1.78471 29.4757 2.83931 28.4211 4.13729 28.4211H6.00312C7.30109 28.4211 8.35569 29.4757 8.35569 30.7737V40.184C8.43682 41.4819 7.30109 42.6177 6.00312 42.6177ZM6.81435 18.3618V26.8798C6.24649 26.7175 5.67863 26.5553 5.02964 26.5553C4.38066 26.5553 3.81279 26.6364 3.32605 26.8798V18.3618C3.89392 18.5241 4.46178 18.6052 5.11076 18.6052H5.19189C5.67863 18.6052 6.32761 18.5241 6.81435 18.3618Z" fill="#6654D4"/>
</svg>
