<svg width="50" height="50" viewBox="0 0 50 50" fill="none" xmlns="http://www.w3.org/2000/svg">
<path d="M42.6777 7.32227C37.9559 2.60039 31.6777 0 25 0C18.3223 0 12.0441 2.60039 7.32227 7.32227C2.60039 12.0441 0 18.3223 0 25C0 31.6777 2.60049 37.9558 7.32227 42.6777C12.044 47.3997 18.3223 50 25 50C31.6777 50 37.9559 47.3996 42.6777 42.6777C47.3996 37.9559 50 31.6777 50 25C50 18.3223 47.3995 12.0442 42.6777 7.32227ZM25 23.4375C28.8771 23.4375 32.0312 26.5917 32.0312 30.4688C32.0312 33.6794 29.8675 36.3925 26.9221 37.2308C26.7104 37.291 26.5625 37.4813 26.5625 37.7014V39.0184C26.5625 39.8598 25.9159 40.5837 25.0755 40.6232C24.1781 40.6654 23.4375 39.9505 23.4375 39.0625V37.7011C23.4375 37.4816 23.2904 37.2912 23.0794 37.2312C20.1466 36.3972 17.9884 33.7045 17.9688 30.5124C17.9637 29.6604 18.6336 28.9313 19.4854 28.9069C20.3692 28.8815 21.0938 29.5905 21.0938 30.4688C21.0938 32.715 22.9997 34.5246 25.2792 34.3652C27.2034 34.2308 28.7621 32.672 28.8965 30.7478C29.0557 28.4682 27.2462 26.5625 25 26.5625C21.1229 26.5625 17.9688 23.4083 17.9688 19.5312C17.9688 16.3206 20.1325 13.6075 23.0779 12.7692C23.2896 12.709 23.4375 12.5187 23.4375 12.2986V10.9816C23.4375 10.1402 24.0841 9.41631 24.9245 9.37676C25.8219 9.33457 26.5625 10.0495 26.5625 10.9375V12.2989C26.5625 12.5184 26.7096 12.7088 26.9206 12.7688C29.8534 13.6028 32.0116 16.2955 32.0312 19.4876C32.0363 20.3396 31.3664 21.0687 30.5146 21.0931C29.6308 21.1185 28.9062 20.4095 28.9062 19.5312C28.9062 17.285 27.0003 15.4754 24.7208 15.6348C22.7966 15.7692 21.2379 17.328 21.1035 19.2522C20.9443 21.5318 22.7538 23.4375 25 23.4375Z" fill="#6654D4"/>
</svg>
