<svg width="39" height="50" viewBox="0 0 39 50" fill="none" xmlns="http://www.w3.org/2000/svg">
<path d="M26.9194 19.805C30.2345 16.7826 34.7175 12.695 35.1261 2.92969H38.0859V0H0V2.92969H2.95986C3.36846 12.695 7.85146 16.7826 11.1665 19.805C13.3902 21.8324 14.6484 23.0733 14.6484 25C14.6484 26.9267 13.3902 28.1676 11.1665 30.195C7.85146 33.2174 3.36846 37.305 2.95986 47.0703H0V50H38.0859V47.0703H35.1261C34.7175 37.305 30.2345 33.2174 26.9194 30.195C24.6957 28.1676 23.4375 26.9267 23.4375 25C23.4375 23.0733 24.6957 21.8324 26.9194 19.805ZM17.5781 35.9803C17.121 36.0744 16.6738 36.2116 16.2425 36.3899L7.27012 40.1027C8.73535 36.3771 11.0953 34.2245 13.1403 32.3601C15.4226 30.2793 17.5781 28.314 17.5781 25V35.9803ZM24.9456 32.3601C26.9906 34.2245 29.3505 36.3771 30.8158 40.1026L21.8435 36.3898C21.4121 36.2115 20.9649 36.0743 20.5078 35.9802V25C20.5078 28.314 22.6634 30.2793 24.9456 32.3601ZM7.21865 9.76562C6.51035 7.92002 6.02119 5.6916 5.89316 2.92969H32.1927C32.0646 5.6916 31.5756 7.92002 30.8672 9.76562H7.21865Z" fill="#6654D4"/>
</svg>
