<svg width="50" height="43" viewBox="0 0 50 43" fill="none" xmlns="http://www.w3.org/2000/svg">
<path d="M42.7823 22.8985H38.9155C39.3096 23.9776 39.525 25.1421 39.525 26.3559V40.9702C39.525 41.4762 39.4369 41.962 39.2766 42.4138H45.6693C48.0573 42.4138 50 40.471 50 38.0831V30.1162C50.0001 26.1364 46.7622 22.8985 42.7823 22.8985ZM10.4751 26.356C10.4751 25.1421 10.6905 23.9777 11.0846 22.8986H7.21779C3.2379 22.8986 0 26.1365 0 30.1164V38.0833C0 40.4712 1.94268 42.4139 4.33067 42.4139H10.7235C10.5589 41.9504 10.4749 41.4622 10.4751 40.9703V26.356ZM29.4201 19.1382H20.58C16.6001 19.1382 13.3622 22.3761 13.3622 26.356V40.9703C13.3622 41.7675 14.0085 42.4139 14.8058 42.4139H35.1943C35.9916 42.4139 36.6379 41.7676 36.6379 40.9703V26.356C36.6379 22.3761 33.4 19.1382 29.4201 19.1382ZM25 0C20.2137 0 16.3198 3.89395 16.3198 8.68039C16.3198 11.927 18.1117 14.7624 20.758 16.2511C22.0131 16.9572 23.4602 17.3607 25 17.3607C26.5399 17.3607 27.987 16.9572 29.2421 16.2511C31.8885 14.7624 33.6803 11.9269 33.6803 8.68039C33.6803 3.89405 29.7864 0 25 0ZM9.75764 8.09074C6.17804 8.09074 3.26592 11.0029 3.26592 14.5824C3.26592 18.162 6.17804 21.0742 9.75764 21.0742C10.6373 21.0749 11.5078 20.8959 12.3157 20.548C13.6738 19.9633 14.7935 18.9284 15.4864 17.632C15.9883 16.6939 16.2504 15.6463 16.2493 14.5824C16.2493 11.003 13.3372 8.09074 9.75764 8.09074ZM40.2425 8.09074C36.6629 8.09074 33.7508 11.0029 33.7508 14.5824C33.7497 15.6463 34.0118 16.6939 34.5137 17.632C35.2066 18.9285 36.3263 19.9634 37.6844 20.548C38.4923 20.8959 39.3628 21.0749 40.2425 21.0742C43.8221 21.0742 46.7342 18.162 46.7342 14.5824C46.7342 11.0029 43.8221 8.09074 40.2425 8.09074Z" fill="#6654D4"/>
</svg>
