<svg width="24" height="24" viewBox="0 0 24 24" fill="none" xmlns="http://www.w3.org/2000/svg">
<path d="M12 24C18.6274 24 24 18.6274 24 12C24 5.37258 18.6274 0 12 0C5.37258 0 0 5.37258 0 12C0 18.6274 5.37258 24 12 24Z" fill="white"/>
<path d="M19.7733 7.17951C19.1886 7.43487 18.5701 7.60451 17.937 7.6832C18.6044 7.28741 19.1033 6.66038 19.3391 5.92109C18.7144 6.29188 18.0308 6.55302 17.318 6.6932C16.8812 6.22606 16.314 5.90118 15.69 5.76081C15.0661 5.62044 14.4143 5.67106 13.8196 5.90611C13.2248 6.14116 12.7145 6.54975 12.3551 7.07873C11.9957 7.60771 11.8038 8.23261 11.8043 8.87214C11.8021 9.11625 11.827 9.35985 11.8785 9.59846C10.6106 9.53618 9.37006 9.20712 8.23795 8.63277C7.10584 8.05842 6.10764 7.2517 5.30853 6.2653C4.89778 6.967 4.77053 7.79908 4.95278 8.59146C5.13503 9.38385 5.61302 10.0767 6.28906 10.5285C5.78446 10.5149 5.29056 10.38 4.84906 10.1353V10.17C4.85048 10.9056 5.10506 11.6182 5.57002 12.1881C6.03498 12.758 6.68196 13.1505 7.40222 13.2995C7.12965 13.3711 6.84876 13.4062 6.56695 13.4037C6.36404 13.4075 6.1613 13.3895 5.96222 13.35C6.16856 13.9826 6.56583 14.5357 7.09938 14.9332C7.63292 15.3308 8.27654 15.5532 8.94169 15.57C7.81452 16.4511 6.42496 16.9296 4.99432 16.9295C4.73941 16.9317 4.48464 16.9169 4.23169 16.8853C5.69043 17.8258 7.39078 18.3228 9.12643 18.3158C14.9922 18.3158 18.1991 13.4574 18.1991 9.24635C18.1991 9.10583 18.1991 8.97004 18.188 8.83425C18.8125 8.38352 19.3497 7.82279 19.7733 7.17951Z" fill="#03A9F4"/>
</svg>
